HIERARCHY
ROOT ui
{
	 OFFSET 0 0 0
	 CHANNELS 3 XPosition YPosition Z Position
	 EndSite
	 {
	 OFFSET 0 -1 0
	 }
}
ROOT li
{
	 OFFSET 0 0 0
	 CHANNELS 3 XPosition YPosition Z Position
	 EndSite
	 {
	 OFFSET 0 -1 0
	 }
}
ROOT ul
{
	 OFFSET 0 0 0
	 CHANNELS 3 XPosition YPosition Z Position
	 EndSite
	 {
	 OFFSET 0 -1 0
	 }
}
ROOT ll
{
	 OFFSET 0 0 0
	 CHANNELS 3 XPosition YPosition Z Position
	 EndSite
	 {
	 OFFSET 0 -1 0
	 }
}
ROOT tt
{
	 OFFSET 0 0 0
	 CHANNELS 3 XPosition YPosition Z Position
	 EndSite
	 {
	 OFFSET 0 -1 0
	 }
}
ROOT tb
{
	 OFFSET 0 0 0
	 CHANNELS 3 XPosition YPosition Z Position
	 EndSite
	 {
	 OFFSET 0 -1 0
	 }
}
ROOT td
{
	 OFFSET 0 0 0
	 CHANNELS 3 XPosition YPosition Z Position
	 EndSite
	 {
	 OFFSET 0 -1 0
	 }
}
ROOT v
{
	 OFFSET 0 0 0
	 CHANNELS 3 XPosition YPosition Z Position
	 EndSite
	 {
	 OFFSET 0 -1 0
	 }
}
ROOT bn
{
	 OFFSET 0 0 0
	 CHANNELS 3 XPosition YPosition Z Position
	 EndSite
	 {
	 OFFSET 0 -1 0
	 }
}
MOTION
Frames: 13
Frame Time: 0.002
0.0016438649892807006	7.378900051116943E-5	0		0.5427320556640625	-2.32360302734375	0		-0.97627490234375	0.09584386444091797	0		-0.6133197021484375	-2.154684814453125	0		1.554636962890625	-0.5086435852050781	0		3.2756220703125	0.06169636154174805	0		4.73605615234375	0.17213714599609375	0		5.66348388671875	0.13343315124511718	0		-0.18564601135253905	5.9627578125	0		
0.02791423797607422	0.0025210990905761717	0		0.5689697265625	-2.324154541015625	0		-0.9339577026367187	0.1020970230102539	0		-0.5990934448242188	-2.15609375	0		1.57098095703125	-0.5000741882324219	0		3.286157958984375	0.08633928680419922	0		4.7414482421875	0.18484320068359375	0		5.66151318359375	0.13309480285644532	0		-0.18843032836914062	5.96155419921875	0		
0.0032611489295959473	0.006585019111633301	0		0.568297607421875	-2.322377685546875	0		-0.9366607666015625	0.10189390563964844	0		-0.6137289428710937	-2.151152099609375	0		1.57420703125	-0.5063417358398438	0		3.26523974609375	0.06836614990234376	0		4.73176904296875	0.18674057006835937	0		5.6524794921875	0.13817367553710938	0		-0.17318775939941405	5.95813720703125	0		
0.10059752655029297	1.8841299414634706E-4	0		0.587626708984375	-2.329833740234375	0		-0.9513888549804688	0.0908394546508789	0		-0.6282420043945313	-2.145206298828125	0		1.5496268310546875	-0.505264892578125	0		3.257727783203125	0.07524627685546875	0		4.73408740234375	0.17950849914550782	0		5.65062841796875	0.13788206481933593	0		-0.17482449340820314	5.95692919921875	0		
-0.0058353571891784665	0.0022500200271606445	0		0.5571923217773438	-2.329681640625	0		-0.96573291015625	0.09978807830810547	0		-0.6238002319335938	-2.155482177734375	0		1.5651165771484374	-0.510658447265625	0		3.2601904296875	0.06802079010009765	0		4.720634765625	0.17948486328125	0		5.6530732421875	0.12019884490966797	0		-0.17731788635253906	5.95673974609375	0		
0.09181505584716797	-0.004130959987640381	0		0.5569549560546875	-2.3278818359375	0		-0.9890746459960937	0.09485086059570312	0		-0.6620364990234375	-2.15323681640625	0		1.544900146484375	-0.5056094970703126	0		3.254087890625	0.08291630554199218	0		4.72733837890625	0.17823870849609375	0		5.654359375	0.13199888610839844	0		-0.19859274291992188	5.96178466796875	0		
0.015782487869262694	0.0015843130350112916	0		0.556918701171875	-2.32507275390625	0		-0.9861380004882813	0.09760686492919922	0		-0.62511328125	-2.153884765625	0		1.5487235107421875	-0.512836669921875	0		3.255808837890625	0.0677326889038086	0		4.72032275390625	0.18517778015136718	0		5.65286474609375	0.13180654907226563	0		-0.20075680541992189	5.96160986328125	0		
0.013872344970703126	0.0014205340147018432	0		0.5550386962890625	-2.3252294921875	0		-0.9939890747070312	0.10250162506103516	0		-0.6659927368164062	-2.153589599609375	0		1.540904296875	-0.5059092102050782	0		3.26398095703125	0.07449057769775391	0		4.725337890625	0.17899151611328126	0		5.6443974609375	0.13704417419433593	0		-0.21787484741210938	5.95062353515625	0		
-0.013852622985839844	0.0015774400234222412	0		0.5513101196289063	-2.3283515625	0		-0.9578277587890625	0.09287869262695313	0		-0.631714599609375	-2.156184326171875	0		1.5611712646484375	-0.5073042602539063	0		3.252169921875	0.06750399780273438	0		4.7236083984375	0.1789061279296875	0		5.64316796875	0.13691708374023437	0		-0.18561918640136718	5.95605908203125	0		
0.0075469760894775395	-0.002841597080230713	0		0.5497964477539062	-2.328487060546875	0		-0.963415771484375	0.08976708221435546	0		-0.6451703491210937	-2.151195556640625	0		1.534594482421875	-0.5101245422363281	0		3.241642578125	0.06951925659179688	0		4.7220546875	0.1788375701904297	0		5.6462578125	0.11939833068847656	0		-0.22133485412597656	5.950318359375	0		
-0.016786148071289062	0.0012989380359649657	0		0.55735791015625	-2.336718017578125	0		-0.9607643432617188	0.09256881713867188	0		-0.636612060546875	-2.159459228515625	0		1.5362681884765625	-0.5062679748535156	0		3.254150390625	0.06027488708496094	0		4.7186572265625	0.17780900573730468	0		5.64818603515625	0.13135858154296876	0		-0.22084379577636717	5.9481572265625	0		
0.012026637077331544	0.0038182199001312255	0		0.551334716796875	-2.323772216796875	0		-1.0209468994140625	0.09613129425048828	0		-0.6697080078125	-2.152212890625	0		1.551114990234375	-0.5015538635253907	0		3.266225341796875	0.08505448913574219	0		4.71743310546875	0.17777183532714844	0		5.65022998046875	0.14334698486328126	0		-0.20805436706542968	5.95786279296875	0		
0.006925890922546387	7.545999884605407E-4	0		0.5742520751953125	-2.329158447265625	0		-0.8870234985351563	0.09439459991455078	0		-0.63678271484375	-2.1567412109375	0		1.5340008544921875	-0.5064455871582031	0		3.24694580078125	0.06721981048583985	0		4.71754296875	0.19273619079589843	0		5.639453125	0.13670347595214843	0		-0.1912570343017578	5.955533203125	0		
